<?xml version="1.0" encoding="UTF-8" standalone="yes"?>
<svg width="642" height="96" viewBox="0 0 214 32" fill="none" xmlns="http://www.w3.org/2000/svg">
  <g id="tenant--nlnl">
    <g id="Marktplaats Logo">
      <g id="Logo">
        <g id="Group">
          <path id="Vector" d="M42.3749 5.28925V7.96428L44.0163 8.08587L43.0436 21.9474C42.922 22.7377 42.8004 22.9201 42.1925 23.0417L41.2197 23.1633V25.7167H48.576V23.0417L47.0561 22.9201L47.6641 11.8552H47.7249L52.0414 23.4673H55.2636L59.7017 11.6728H59.8233L60.3705 21.8866C60.4313 22.6769 60.2489 22.8593 59.7017 22.9201L58.729 23.0417V25.5951H66.0853V22.9201L64.5046 22.7985L63.5319 8.87622C63.4103 8.20746 63.7751 7.96428 64.3222 7.84268L65.2342 7.72109V5.16766H58.4858L53.7437 18.1172H53.6221L49.1232 5.16766H42.3749V5.28925ZM81.8315 10.8217C79.4604 9.90975 77.211 9.72736 76.1775 9.72736C70.5842 9.72736 67.9092 13.1927 67.9092 18.6036C67.9092 22.7985 69.4899 26.0815 74.0496 26.0815C75.9951 26.0815 77.3934 25.2304 78.1229 24.136L78.2445 24.1968L78.3661 25.7167H83.3514V23.2849L82.5002 23.2241C81.9531 23.2241 81.8315 22.9809 81.8315 22.3729V10.8217ZM77.5758 20.5491C77.5758 21.765 76.6638 22.9201 74.9615 22.9201C72.7729 22.9201 72.1649 20.7314 72.1649 18.3604C72.1649 15.4422 72.9553 12.8888 75.6303 12.8888C76.4206 12.8888 77.1502 13.0711 77.515 13.1927V20.5491H77.5758ZM93.3219 13.1319C93.6867 13.1319 93.9299 13.1927 94.1123 13.2535C94.3555 13.3751 94.4163 13.4967 94.4163 13.9831V15.9894L97.8816 15.7462V10.2137C97.0305 9.84895 95.9362 9.66657 95.0242 9.66657C92.4708 9.66657 91.1333 11.1865 90.6469 12.4024H90.5861V10.0313H84.9321V12.5848L85.9656 12.7064C86.5128 12.7672 86.6952 12.9496 86.6952 13.5575V22.069C86.6952 22.7985 86.5736 22.9809 85.9656 23.1025L84.9929 23.2241V25.6559H93.5043V23.1025L90.9509 22.9809V15.9894C90.9509 14.3479 91.8628 13.1319 93.3219 13.1319ZM105.299 19.2115C105.968 19.09 106.515 19.0292 107.123 18.786L110.102 25.6559H115.269V23.1025L113.628 22.9809L110.831 16.9621C112.29 15.7462 113.141 14.2263 113.385 12.7672L114.783 12.5848V10.0921H107.974V12.5848L108.764 12.7064C109.19 12.828 109.433 12.8888 109.433 13.3143C109.433 14.7126 107.244 16.0501 105.36 16.2933V3.76935H99.3407V6.32278L100.374 6.44438C100.982 6.50517 101.104 6.68756 101.104 7.35632V22.1906C101.104 22.9201 100.921 23.0417 100.374 23.1633L99.4015 23.2849V25.7167H106.758V23.1633L105.36 23.0417V19.2115H105.299ZM115.877 13.0711H117.944V20.6099C117.944 23.2241 118.188 26.0815 122.99 26.0815C124.571 26.0815 126.091 25.6559 126.942 25.1088L126.213 22.1906C125.726 22.4945 124.997 22.7377 124.146 22.7377C122.93 22.7377 122.261 22.2513 122.261 20.4275V13.0711H125.909L126.091 10.0921H122.322V6.56597H119.951C119.282 8.38985 118.492 10.0313 116.242 10.4569L115.877 13.0711ZM129.921 28.4525C129.921 29.2429 129.739 29.3645 129.192 29.4253L128.219 29.5469V31.9787H136.852V29.4253L134.177 29.2429V25.2304C135.028 25.7167 136.122 26.0207 137.277 26.0207C141.594 26.0207 143.843 22.7377 143.843 17.3269C143.843 12.4024 141.898 9.60577 138.311 9.60577C136.609 9.60577 134.846 10.2137 133.934 11.916H133.873V10.0313H128.158V12.5848L129.192 12.6456C129.678 12.7064 129.921 12.9496 129.921 13.5575V28.4525ZM134.238 15.3814C134.238 14.4087 135.028 13.0103 136.852 13.0103C139.101 13.0103 139.588 15.4422 139.588 17.9956C139.588 20.7922 138.858 22.9809 136.548 22.9809C135.758 22.9809 134.906 22.6769 134.298 22.2513V15.3814H134.238ZM151.565 3.76935H145.546V6.32278L146.579 6.44438C147.187 6.50517 147.309 6.68756 147.309 7.35632V22.1298C147.309 22.9201 147.187 23.0417 146.579 23.1025L145.607 23.2241V25.6559H153.206V23.1025L151.625 22.9809V3.76935H151.565ZM168.709 10.8217C166.338 9.90975 164.149 9.72736 163.055 9.72736C157.462 9.72736 154.787 13.1927 154.787 18.6036C154.787 22.7985 156.367 26.0815 160.927 26.0815C162.873 26.0815 164.271 25.2304 165 24.136L165.122 24.1968L165.244 25.7167H170.229V23.2849L169.378 23.2241C168.831 23.2241 168.709 22.9809 168.709 22.3729V10.8217ZM164.453 20.5491C164.453 21.765 163.541 22.9201 161.839 22.9201C159.65 22.9201 159.042 20.7314 159.042 18.3604C159.042 15.4422 159.833 12.8888 162.508 12.8888C163.298 12.8888 164.028 13.0711 164.393 13.1927V20.5491H164.453ZM185.975 10.8217C183.604 9.90975 181.415 9.72736 180.321 9.72736C174.728 9.72736 172.053 13.1927 172.053 18.6036C172.053 22.7985 173.634 26.0815 178.193 26.0815C180.139 26.0815 181.537 25.2304 182.267 24.136L182.388 24.1968L182.51 25.7167H187.495V23.2849L186.644 23.2241C186.097 23.2241 185.975 22.9809 185.975 22.3729V10.8217ZM181.719 20.5491C181.719 21.765 180.807 22.9201 179.105 22.9201C176.917 22.9201 176.309 20.7314 176.309 18.3604C176.309 15.4422 177.099 12.8888 179.774 12.8888C180.564 12.8888 181.294 13.0711 181.659 13.1927V20.5491H181.719ZM188.589 13.0711H190.656V20.6099C190.656 23.2241 190.9 26.0815 195.702 26.0815C197.283 26.0815 198.803 25.6559 199.654 25.1088L198.925 22.1906C198.438 22.4945 197.709 22.7377 196.858 22.7377C195.642 22.7377 194.973 22.2513 194.973 20.4275V13.0711H198.621L198.803 10.0921H194.973V6.56597H192.602C191.933 8.38985 191.143 10.0313 188.893 10.4569L188.589 13.0711ZM209.442 12.828C209.807 12.9496 209.868 13.1927 209.868 13.6791V14.9558L212.908 14.7126V10.8825C211.57 10.1529 209.686 9.78816 207.983 9.78816C204.275 9.78816 201.539 11.5512 201.539 14.8342C201.539 18.1172 203.91 18.8468 206.099 19.4547C207.801 19.8803 209.017 20.1843 209.017 21.461C209.017 22.7377 208.044 23.2241 206.585 23.2241C205.977 23.2241 205.308 23.1025 204.943 22.9201C204.579 22.7985 204.457 22.6161 204.457 22.1298V20.7314L201.357 20.9746V25.048C202.572 25.7167 204.943 26.0815 206.828 26.0815C210.78 26.0815 213.333 24.1968 213.333 20.9138C213.333 17.7524 210.901 17.0229 208.652 16.3541C207.011 15.8678 205.673 15.6246 205.673 14.2263C205.673 13.1319 206.585 12.6456 207.801 12.6456C208.409 12.6456 208.956 12.6456 209.442 12.828Z" fill="#2D3C4D"/>
        </g>
      </g>
      <g id="Coin">
        <path id="Vector_2" fill-rule="evenodd" clip-rule="evenodd" d="M15.8678 0C24.6224 0 31.7355 7.05234 31.7355 15.807C31.7355 24.5008 24.6224 31.6139 15.8678 31.6139C7.11314 31.6139 0 24.5616 0 15.807C0 7.05234 7.11314 0 15.8678 0Z" fill="#EDA566"/>
        <path id="Vector_3" fill-rule="evenodd" clip-rule="evenodd" d="M21.2178 12.0376L14.7126 5.77563C13.4967 6.93076 13.4967 8.81544 14.7126 9.97056L19.0292 14.1047L12.5848 20.4275C13.8007 21.5826 15.7462 21.5826 16.9013 20.4275L21.2178 16.2933C22.3729 15.0774 22.3729 13.1928 21.2178 12.0376Z" fill="#2D3C4D"/>
        <path id="Vector_4" fill-rule="evenodd" clip-rule="evenodd" d="M18.9075 25.3519C20.6098 25.3519 21.9474 24.0144 21.9474 22.3729H17.3876H12.8887C11.1865 22.3729 9.84894 23.7104 9.84894 25.3519H14.4086H18.9075Z" fill="#2D3C4D"/>
      </g>
    </g>
  </g>
</svg>